<svg width="186" height="92" viewBox="0 0 186 92" fill="none" xmlns="http://www.w3.org/2000/svg">
<rect x="89" y="42" width="16" height="6" fill="#4E5056"/>
<g clip-path="url(#clip0_43_31)">
<path d="M46 92.0002C71.405 92.0002 91.9999 71.4054 91.9999 46.0004C91.9999 20.5953 71.405 0.000488281 46 0.000488281C20.595 0.000488281 0.00012207 20.5953 0.00012207 46.0004C0.00012207 71.4054 20.595 92.0002 46 92.0002Z" fill="#640082"/>
<path fill-rule="evenodd" clip-rule="evenodd" d="M79.6914 61.0752V53.1602H73.4316V20.8535H60.4805L40.7656 51.6494V61.0752H63.6465V71.6523H73.4316V61.0752H79.6914ZM63.6465 53.1602H49.4727L59.834 36.8994C61.8477 33.7334 63.2871 30.6392 63.502 29.7759H63.6465V53.1602Z" fill="white"/>
<path fill-rule="evenodd" clip-rule="evenodd" d="M35.1953 71.6523V20.8535H26.3447C24.0425 22.6523 18.5742 26.0342 12.6738 28.8403L9.58008 30.2793L13.0337 38.0503L15.6958 36.6836C17.5669 35.748 22.6753 33.0859 24.4023 31.7187V71.6523H35.1953Z" fill="white"/>
</g>
<rect x="104" y="4" width="82" height="82" rx="3" fill="#4E5056"/>
<rect x="123" y="12" width="44" height="44" fill="#FFC934"/>
<path d="M128.492 20.7272C135.81 21.0032 140.362 21.6473 149.383 23.7545L159.083 14.6727C159.083 14.6727 160.575 13.1591 162.067 14.6727C163.56 16.1862 162.813 17.6999 162.813 17.6999L152.368 28.2954C155.252 36.5861 156.116 41.0283 156.845 48.7295L153.114 51C150.923 44.2491 149.473 40.8941 146.399 35.8636L139.684 41.1613C139.426 44.1939 139.443 45.8428 139.684 48.7295H136.699C136.699 48.7295 135.935 45.1141 134.461 43.4318C132.73 41.456 128.492 40.4045 128.492 40.4045L129.238 37.3773C132.218 38.0793 133.866 38.2384 136.699 37.3773L141.176 32.0795C137.104 28.495 133.915 26.8775 127 24.5113L128.492 20.7272Z" fill="#4E5056"/>
<path d="M138.094 70C138.094 71.7448 137.763 73.2292 137.102 74.4531C136.445 75.6771 135.549 76.612 134.414 77.2578C133.284 77.8984 132.013 78.2187 130.602 78.2187C129.18 78.2187 127.904 77.8958 126.773 77.25C125.643 76.6042 124.75 75.6693 124.094 74.4453C123.438 73.2214 123.109 71.7396 123.109 70C123.109 68.2552 123.438 66.7708 124.094 65.5469C124.75 64.3229 125.643 63.3906 126.773 62.75C127.904 62.1042 129.18 61.7812 130.602 61.7812C132.013 61.7812 133.284 62.1042 134.414 62.75C135.549 63.3906 136.445 64.3229 137.102 65.5469C137.763 66.7708 138.094 68.2552 138.094 70ZM134.664 70C134.664 68.8698 134.495 67.9167 134.156 67.1406C133.823 66.3646 133.352 65.776 132.742 65.375C132.133 64.974 131.419 64.7734 130.602 64.7734C129.784 64.7734 129.07 64.974 128.461 65.375C127.852 65.776 127.378 66.3646 127.039 67.1406C126.706 67.9167 126.539 68.8698 126.539 70C126.539 71.1302 126.706 72.0833 127.039 72.8594C127.378 73.6354 127.852 74.224 128.461 74.625C129.07 75.026 129.784 75.2266 130.602 75.2266C131.419 75.2266 132.133 75.026 132.742 74.625C133.352 74.224 133.823 73.6354 134.156 72.8594C134.495 72.0833 134.664 71.1302 134.664 70ZM140.537 78V66H143.764V68.0937H143.889C144.107 67.349 144.475 66.7865 144.99 66.4063C145.506 66.0208 146.1 65.8281 146.771 65.8281C146.938 65.8281 147.118 65.8385 147.311 65.8594C147.503 65.8802 147.673 65.9089 147.818 65.9453V68.8984C147.662 68.8516 147.446 68.8099 147.17 68.7734C146.894 68.737 146.641 68.7188 146.412 68.7188C145.923 68.7188 145.485 68.8255 145.1 69.0391C144.719 69.2474 144.417 69.5391 144.193 69.9141C143.975 70.2891 143.865 70.7214 143.865 71.2109V78H140.537ZM152.867 62V78H149.539V62H152.867ZM157.588 82.5C157.166 82.5 156.77 82.4661 156.4 82.3984C156.036 82.3359 155.734 82.2552 155.494 82.1562L156.244 79.6719C156.635 79.7917 156.986 79.8568 157.299 79.8672C157.617 79.8776 157.89 79.8047 158.119 79.6484C158.354 79.4922 158.544 79.2266 158.689 78.8516L158.885 78.3438L154.58 66H158.08L160.564 74.8125H160.689L163.197 66H166.721L162.057 79.2969C161.833 79.9427 161.528 80.5052 161.143 80.9844C160.762 81.4688 160.281 81.8411 159.697 82.1016C159.114 82.3672 158.411 82.5 157.588 82.5Z" fill="#FFC934"/>
<defs>
<clipPath id="clip0_43_31">
<rect width="92" height="92" fill="white"/>
</clipPath>
</defs>
</svg>
