<svg width="92" height="173" viewBox="0 0 92 173" fill="none" xmlns="http://www.w3.org/2000/svg">
<rect x="44" y="91" width="5" height="9" fill="#4E5056"/>
<rect x="10" y="100" width="72" height="73" rx="3" fill="#4E5056"/>
<rect x="32" y="105" width="29" height="29" fill="#FFC934"/>
<path d="M35.5 111C40.404 111.182 43.4543 111.608 49.5 113L56 107C56 107 57 106 58 107C59 108 58.5 109 58.5 109L51.5 116C53.4329 121.477 54.0117 124.412 54.5 129.5L52 131C50.5315 126.54 49.5603 124.324 47.5 121L43 124.5C42.8275 126.504 42.8382 127.593 43 129.5H41C41 129.5 40.488 127.112 39.5 126C38.3397 124.695 35.5 124 35.5 124L36 122C37.9966 122.464 39.1011 122.569 41 122L44 118.5C41.2714 116.132 39.1337 115.063 34.5 113.5L35.5 111Z" fill="#4E5056"/>
<g clip-path="url(#clip0_41_16)">
<path d="M71.3 92H20.7C9.26771 92 0 82.7323 0 71.3V20.7C0 9.26771 9.26771 0 20.7 0H71.3C82.7323 0 92 9.26771 92 20.7V71.3C92 82.7323 82.7323 92 71.3 92Z" fill="#3C91DC"/>
<path d="M44.8604 70.3217H27.1228V21.5951H45.6211C54.729 21.5951 63.2895 24.0803 63.2895 33.9489C63.2895 38.9884 59.2845 42.7831 55.4897 43.4732V43.6115C60.5955 44.3016 64.8772 48.3052 64.8772 55.2075C64.8772 67.4922 54.1096 70.3217 44.8604 70.3217ZM43.2036 29.7392H37.8904V40.9203H43.3419C49.0009 40.9203 52.7294 40.0228 52.7294 35.3982C52.7294 30.9134 49.4158 29.7392 43.2036 29.7392ZM43.6877 48.6496H37.8904V62.2467H44.2409C51.0726 62.2467 53.7638 60.1073 53.7638 54.9309C53.7638 49.5471 48.5889 48.6496 43.6877 48.6496Z" fill="white"/>
</g>
<path d="M38.6882 142.492H35.8885C35.8374 142.13 35.733 141.808 35.5753 141.527C35.4176 141.241 35.2152 140.999 34.968 140.798C34.7209 140.598 34.4354 140.445 34.1115 140.338C33.7919 140.232 33.4446 140.178 33.0696 140.178C32.392 140.178 31.8018 140.347 31.299 140.683C30.7962 141.016 30.4063 141.501 30.1293 142.141C29.8523 142.776 29.7138 143.547 29.7138 144.455C29.7138 145.388 29.8523 146.172 30.1293 146.807C30.4105 147.442 30.8026 147.921 31.3054 148.245C31.8082 148.569 32.3899 148.731 33.0504 148.731C33.4212 148.731 33.7642 148.682 34.0795 148.584C34.3991 148.486 34.6825 148.343 34.9297 148.156C35.1768 147.964 35.3814 147.732 35.5433 147.459C35.7095 147.186 35.8246 146.875 35.8885 146.526L38.6882 146.538C38.6158 147.139 38.4347 147.719 38.1449 148.277C37.8594 148.831 37.4737 149.327 36.9879 149.766C36.5064 150.201 35.9311 150.546 35.2621 150.802C34.5973 151.053 33.8452 151.179 33.0057 151.179C31.8381 151.179 30.794 150.915 29.8736 150.386C28.9574 149.858 28.233 149.093 27.7003 148.092C27.1719 147.09 26.9077 145.878 26.9077 144.455C26.9077 143.027 27.1761 141.812 27.7131 140.811C28.25 139.81 28.9787 139.047 29.8991 138.523C30.8196 137.994 31.8551 137.73 33.0057 137.73C33.7642 137.73 34.4673 137.837 35.1151 138.05C35.767 138.263 36.3445 138.574 36.8473 138.983C37.3501 139.388 37.7592 139.884 38.0746 140.472C38.3942 141.06 38.5987 141.734 38.6882 142.492ZM45.3136 151H40.6729V137.909H45.3519C46.6687 137.909 47.8022 138.171 48.7525 138.695C49.7028 139.215 50.4336 139.963 50.945 140.939C51.4606 141.915 51.7184 143.082 51.7184 144.442C51.7184 145.805 51.4606 146.977 50.945 147.957C50.4336 148.937 49.6985 149.69 48.7397 150.214C47.7852 150.738 46.6431 151 45.3136 151ZM43.4407 148.629H45.1985C46.0167 148.629 46.7049 148.484 47.2631 148.194C47.8256 147.9 48.2475 147.446 48.5288 146.832C48.8143 146.214 48.957 145.418 48.957 144.442C48.957 143.474 48.8143 142.684 48.5288 142.07C48.2475 141.457 47.8278 141.005 47.2695 140.715C46.7113 140.425 46.0231 140.281 45.2049 140.281H43.4407V148.629ZM62.449 142.141C62.3596 141.83 62.2338 141.555 62.0719 141.316C61.91 141.073 61.7118 140.869 61.4775 140.702C61.2473 140.532 60.9831 140.402 60.6848 140.312C60.3908 140.223 60.0648 140.178 59.7069 140.178C59.0378 140.178 58.4498 140.344 57.9426 140.677C57.4398 141.009 57.0478 141.493 56.7665 142.128C56.4853 142.759 56.3446 143.53 56.3446 144.442C56.3446 145.354 56.4831 146.129 56.7601 146.768C57.0371 147.408 57.4292 147.896 57.9363 148.232C58.4434 148.565 59.0421 148.731 59.7324 148.731C60.3588 148.731 60.8936 148.62 61.3368 148.398C61.7843 148.173 62.1252 147.855 62.3596 147.446C62.5982 147.037 62.7175 146.553 62.7175 145.995L63.28 146.078H59.905V143.994H65.383V145.643C65.383 146.794 65.1401 147.783 64.6543 148.609C64.1685 149.432 63.4995 150.067 62.6472 150.514C61.7949 150.957 60.8191 151.179 59.7196 151.179C58.4924 151.179 57.4142 150.908 56.4853 150.367C55.5563 149.822 54.8319 149.048 54.312 148.047C53.7963 147.041 53.5385 145.848 53.5385 144.467C53.5385 143.406 53.6919 142.46 53.9988 141.629C54.3098 140.794 54.7445 140.087 55.3027 139.507C55.861 138.928 56.5108 138.487 57.2523 138.184C57.9938 137.881 58.7971 137.73 59.6621 137.73C60.4036 137.73 61.0939 137.839 61.7331 138.056C62.3723 138.269 62.9391 138.572 63.4334 138.964C63.932 139.356 64.339 139.822 64.6543 140.364C64.9696 140.901 65.1721 141.493 65.2615 142.141H62.449Z" fill="#FFC934"/>
<path d="M40.1676 159.455C40.1676 160.882 39.897 162.097 39.3558 163.098C38.8189 164.099 38.0859 164.864 37.157 165.393C36.2322 165.917 35.1925 166.179 34.0376 166.179C32.8743 166.179 31.8303 165.915 30.9055 165.386C29.9808 164.858 29.25 164.093 28.7131 163.092C28.1761 162.09 27.9077 160.878 27.9077 159.455C27.9077 158.027 28.1761 156.812 28.7131 155.811C29.25 154.81 29.9808 154.047 30.9055 153.523C31.8303 152.994 32.8743 152.73 34.0376 152.73C35.1925 152.73 36.2322 152.994 37.157 153.523C38.0859 154.047 38.8189 154.81 39.3558 155.811C39.897 156.812 40.1676 158.027 40.1676 159.455ZM37.3615 159.455C37.3615 158.53 37.223 157.75 36.946 157.115C36.6733 156.48 36.2876 155.999 35.7891 155.67C35.2905 155.342 34.7067 155.178 34.0376 155.178C33.3686 155.178 32.7848 155.342 32.2862 155.67C31.7876 155.999 31.3999 156.48 31.1229 157.115C30.8501 157.75 30.7138 158.53 30.7138 159.455C30.7138 160.379 30.8501 161.159 31.1229 161.794C31.3999 162.429 31.7876 162.911 32.2862 163.239C32.7848 163.567 33.3686 163.731 34.0376 163.731C34.7067 163.731 35.2905 163.567 35.7891 163.239C36.2876 162.911 36.6733 162.429 36.946 161.794C37.223 161.159 37.3615 160.379 37.3615 159.455ZM42.1667 166V156.182H44.8066V157.895H44.9089C45.0879 157.286 45.3883 156.825 45.8102 156.514C46.2321 156.199 46.7179 156.041 47.2676 156.041C47.4039 156.041 47.551 156.05 47.7086 156.067C47.8663 156.084 48.0048 156.107 48.1241 156.137V158.553C47.9963 158.515 47.8194 158.481 47.5936 158.451C47.3677 158.421 47.161 158.406 46.9735 158.406C46.573 158.406 46.215 158.494 45.8997 158.668C45.5886 158.839 45.3414 159.077 45.1582 159.384C44.9792 159.691 44.8897 160.045 44.8897 160.445V166H42.1667ZM52.255 152.909V166H49.532V152.909H52.255ZM56.1174 169.682C55.7722 169.682 55.4483 169.654 55.1458 169.599C54.8475 169.548 54.6003 169.482 54.4043 169.401L55.0179 167.368C55.3375 167.466 55.6252 167.519 55.8809 167.528C56.1408 167.536 56.3645 167.477 56.552 167.349C56.7438 167.221 56.8993 167.004 57.0186 166.697L57.1784 166.281L53.6564 156.182H56.5201L58.5527 163.392H58.655L60.7069 156.182H63.5897L59.7736 167.061C59.5904 167.589 59.3411 168.05 59.0257 168.442C58.7147 168.838 58.3205 169.143 57.8432 169.356C57.3659 169.573 56.7907 169.682 56.1174 169.682Z" fill="#FFC934"/>
<defs>
<clipPath id="clip0_41_16">
<rect width="92" height="92" fill="white"/>
</clipPath>
</defs>
</svg>
