<svg width="601" height="148" viewBox="0 0 601 148" fill="none" xmlns="http://www.w3.org/2000/svg">
<rect y="4" width="601" height="143" rx="32" fill="#006DBD"/>
<path d="M54.6641 50.0159C48.0903 50.0159 42.599 55.4956 42.599 62.0556V93.7698C42.599 100.33 48.0903 105.81 54.6641 105.81H105.867C112.441 105.81 117.932 100.33 117.932 93.7698V62.0556C117.932 55.4956 112.441 50.0159 105.867 50.0159H54.6641ZM54.6641 61.6885H105.867V94.1369H54.6641V61.6885Z" fill="white"/>
<path d="M139.414 105.81H127.349V62.0556C127.349 55.4956 132.84 50.0159 139.414 50.0159H163.544C163.544 55.9849 158.073 61.6885 151.479 61.6885H139.414" fill="white"/>
<path d="M184.732 105.809H172.667V31.2222C179.227 31.2222 184.732 36.6914 184.732 42.9682" fill="white"/>
<path d="M255.051 93.4543V49.3333H266.833L267.128 114.671C267.128 121.231 261.636 126.71 255.062 126.71H230.932C230.932 120.993 236.136 115.038 242.115 115.038L255.062 115.038L255.051 105.127H205.048C198.628 105.127 193.266 99.6472 193.266 93.0872V49.4801C200.217 49.4801 205.048 54.4631 205.048 61.0793V93.4543H255.051Z" fill="white"/>
<path d="M559.785 27.8401C533.081 32.7543 506.378 37.6685 479.674 42.5827C494.864 47.0124 510.054 51.4421 525.244 55.8718C530.585 71.3066 535.925 86.7413 541.266 102.176C547.439 77.3974 553.612 52.6188 559.785 27.8401Z" fill="white" stroke="white" stroke-linecap="square" stroke-linejoin="round"/>
<path d="M517.006 69.0793C502.426 69.8118 487.847 70.5442 473.268 71.2767C482.333 74.9107 491.398 78.5447 500.463 82.1787C505.133 91.2366 509.803 100.294 514.473 109.352C515.317 95.928 516.161 82.5037 517.006 69.0793Z" fill="white" stroke="white" stroke-linecap="square" stroke-linejoin="round"/>
<path d="M409.232 93.0858V81.0086L362.6 81.0306C358.585 83.8467 358.699 90.5612 362.6 93.0846L409.232 93.0858ZM420.219 105.809H363.034C355.284 105.809 348.811 100.018 348.811 93.0846V81.4695C348.811 74.5363 355.284 68.3059 363.034 68.3059L406.43 68.2839C410.445 65.4678 410.332 62.379 406.43 59.8556H390.135C383.16 59.8556 377.85 54.3126 377.85 47.1309H405.996C413.746 47.1309 420.219 52.9223 420.219 59.8556L420.219 105.809Z" fill="white"/>
<path d="M277.173 48.0025L312.29 105.809H323.562L358.091 48.0025C352.594 44.8785 345.358 46.8201 342.356 52.079L317.888 92.2213L292.908 52.079C288.91 46.4702 283.214 45.4461 277.173 48.0025Z" fill="white"/>
<path d="M444.867 105.809H432.802V31.2222C439.363 31.2222 444.867 36.6914 444.867 42.9682" fill="white"/>
</svg>
