<svg width="258" height="258" viewBox="0 0 258 258" fill="none" xmlns="http://www.w3.org/2000/svg">
<circle cx="129" cy="129" r="129" fill="#15388D"/>
<g clip-path="url(#clip0_46_115)">
<path d="M129.5 74.7501C139.395 74.7501 147.417 66.7285 147.417 56.8334C147.417 46.9383 139.395 38.9167 129.5 38.9167C119.605 38.9167 111.583 46.9383 111.583 56.8334C111.583 66.7285 119.605 74.7501 129.5 74.7501Z" fill="white"/>
<path d="M192.208 137.458V119.542C178.412 119.721 164.527 112.823 155.748 103.148L144.192 90.3374C142.669 88.6353 140.787 87.2916 138.727 86.3062C138.637 86.3062 138.637 86.2166 138.548 86.2166H138.458C135.323 84.4249 131.74 83.5291 127.798 83.8874C118.392 84.6937 111.583 93.0249 111.583 102.431V155.375C111.583 165.229 119.646 173.292 129.5 173.292H174.292V218.083H192.208V168.812C192.208 158.958 184.146 150.896 174.292 150.896H147.417V119.99C158.973 129.575 176.531 137.369 192.208 137.458ZM136.935 182.25C133.262 192.642 123.319 200.167 111.583 200.167C96.7125 200.167 84.7083 188.162 84.7083 173.292C84.7083 161.556 92.2333 151.702 102.625 147.94V129.396C82.2 133.517 66.7917 151.612 66.7917 173.292C66.7917 198.017 86.8583 218.083 111.583 218.083C133.262 218.083 151.358 202.675 155.479 182.25H136.935Z" fill="white"/>
</g>
<defs>
<clipPath id="clip0_46_115">
<rect width="215" height="215" fill="white" transform="translate(22 21)"/>
</clipPath>
</defs>
</svg>
