<svg width="465" height="67" viewBox="0 0 465 67" fill="none" xmlns="http://www.w3.org/2000/svg">
<rect x="10.635" y="2.83594" width="160.942" height="61.328" rx="15" fill="url(#paint0_linear_2452_274)"/>
<path d="M41.288 50V15.6406H54.2489C56.5301 15.6406 58.2723 15.75 59.4755 15.9687C61.163 16.25 62.577 16.7891 63.7176 17.5859C64.8583 18.3672 65.7723 19.4687 66.4598 20.8906C67.163 22.3125 67.5145 23.875 67.5145 25.5781C67.5145 28.5 66.5848 30.9766 64.7255 33.0078C62.8661 35.0234 59.5067 36.0312 54.6473 36.0312H45.8348V50H41.288ZM45.8348 31.9766H54.7176C57.6551 31.9766 59.7411 31.4297 60.9755 30.3359C62.2098 29.2422 62.827 27.7031 62.827 25.7187C62.827 24.2812 62.4598 23.0547 61.7255 22.0391C61.0067 21.0078 60.0536 20.3281 58.8661 20C58.1005 19.7969 56.6864 19.6953 54.6239 19.6953H45.8348V31.9766ZM73.163 50V15.6406H80.0067L88.1395 39.9687C88.8895 42.2344 89.4364 43.9297 89.7801 45.0547C90.1708 43.8047 90.7801 41.9687 91.6083 39.5469L99.8348 15.6406H105.952V50H101.569V21.2422L91.5848 50H87.4833L77.5458 20.75V50H73.163ZM113.288 50V15.6406H125.124C127.796 15.6406 129.835 15.8047 131.241 16.1328C133.21 16.5859 134.89 17.4062 136.28 18.5937C138.093 20.125 139.444 22.0859 140.335 24.4766C141.241 26.8516 141.694 29.5703 141.694 32.6328C141.694 35.2422 141.39 37.5547 140.78 39.5703C140.171 41.5859 139.39 43.2578 138.436 44.5859C137.483 45.8984 136.436 46.9375 135.296 47.7031C134.171 48.4531 132.804 49.0234 131.194 49.4141C129.6 49.8047 127.765 50 125.686 50H113.288ZM117.835 45.9453H125.171C127.436 45.9453 129.21 45.7344 130.491 45.3125C131.788 44.8906 132.819 44.2969 133.585 43.5312C134.663 42.4531 135.499 41.0078 136.093 39.1953C136.702 37.3672 137.007 35.1562 137.007 32.5625C137.007 28.9687 136.413 26.2109 135.225 24.2891C134.054 22.3516 132.624 21.0547 130.936 20.3984C129.718 19.9297 127.757 19.6953 125.054 19.6953H117.835V45.9453Z" fill="white"/>
<path d="M191.977 48V19.3672H202.777C204.678 19.3672 206.13 19.4583 207.133 19.6406C208.539 19.875 209.717 20.3242 210.668 20.9883C211.618 21.6393 212.38 22.5573 212.953 23.7422C213.539 24.9271 213.832 26.2292 213.832 27.6484C213.832 30.0833 213.057 32.1471 211.508 33.8398C209.958 35.5195 207.159 36.3594 203.109 36.3594H195.766V48H191.977ZM195.766 32.9805H203.168C205.616 32.9805 207.354 32.5247 208.383 31.6133C209.411 30.7018 209.926 29.4193 209.926 27.7656C209.926 26.5677 209.62 25.5456 209.008 24.6992C208.409 23.8398 207.615 23.2734 206.625 23C205.987 22.8307 204.809 22.7461 203.09 22.7461H195.766V32.9805ZM218.129 48V19.3672H221.645V48H218.129ZM240.648 45.4414C239.346 46.5482 238.09 47.3294 236.879 47.7852C235.681 48.2409 234.392 48.4688 233.012 48.4688C230.733 48.4688 228.982 47.9154 227.758 46.8086C226.534 45.6888 225.922 44.263 225.922 42.5312C225.922 41.5156 226.15 40.5911 226.605 39.7578C227.074 38.9115 227.68 38.2344 228.422 37.7266C229.177 37.2188 230.023 36.8346 230.961 36.5742C231.651 36.3919 232.693 36.2161 234.086 36.0469C236.924 35.7083 239.014 35.3047 240.355 34.8359C240.368 34.3542 240.375 34.0482 240.375 33.918C240.375 32.4857 240.043 31.4766 239.379 30.8906C238.48 30.0964 237.146 29.6992 235.375 29.6992C233.721 29.6992 232.497 29.9922 231.703 30.5781C230.922 31.151 230.342 32.1732 229.965 33.6445L226.527 33.1758C226.84 31.7044 227.354 30.5195 228.07 29.6211C228.786 28.7096 229.822 28.013 231.176 27.5312C232.53 27.0365 234.099 26.7891 235.883 26.7891C237.654 26.7891 239.092 26.9974 240.199 27.4141C241.306 27.8307 242.12 28.3581 242.641 28.9961C243.161 29.6211 243.526 30.4154 243.734 31.3789C243.852 31.9779 243.91 33.0586 243.91 34.6211V39.3086C243.91 42.5768 243.982 44.6471 244.125 45.5195C244.281 46.3789 244.581 47.2057 245.023 48H241.352C240.987 47.2708 240.753 46.418 240.648 45.4414ZM240.355 37.5898C239.079 38.1107 237.165 38.5534 234.613 38.918C233.168 39.1263 232.146 39.3607 231.547 39.6211C230.948 39.8815 230.486 40.2656 230.16 40.7734C229.835 41.2682 229.672 41.8216 229.672 42.4336C229.672 43.3711 230.023 44.1523 230.727 44.7773C231.443 45.4023 232.484 45.7148 233.852 45.7148C235.206 45.7148 236.41 45.4219 237.465 44.8359C238.52 44.237 239.294 43.4232 239.789 42.3945C240.167 41.6003 240.355 40.4284 240.355 38.8789V37.5898ZM249.379 48V27.2578H252.543V30.207C254.066 27.9284 256.267 26.7891 259.145 26.7891C260.395 26.7891 261.54 27.0169 262.582 27.4727C263.637 27.9154 264.424 28.5013 264.945 29.2305C265.466 29.9596 265.831 30.8255 266.039 31.8281C266.169 32.4792 266.234 33.6185 266.234 35.2461V48H262.719V35.3828C262.719 33.9505 262.582 32.8828 262.309 32.1797C262.035 31.4635 261.547 30.8971 260.844 30.4805C260.154 30.0508 259.34 29.8359 258.402 29.8359C256.905 29.8359 255.609 30.3112 254.516 31.2617C253.435 32.2122 252.895 34.0156 252.895 36.6719V48H249.379ZM283.109 48V19.3672H288.812L295.59 39.6406C296.215 41.5286 296.671 42.9414 296.957 43.8789C297.283 42.8372 297.79 41.3073 298.48 39.2891L305.336 19.3672H310.434V48H306.781V24.0352L298.461 48H295.043L286.762 23.625V48H283.109ZM329.633 45.4414C328.331 46.5482 327.074 47.3294 325.863 47.7852C324.665 48.2409 323.376 48.4688 321.996 48.4688C319.717 48.4688 317.966 47.9154 316.742 46.8086C315.518 45.6888 314.906 44.263 314.906 42.5312C314.906 41.5156 315.134 40.5911 315.59 39.7578C316.059 38.9115 316.664 38.2344 317.406 37.7266C318.161 37.2188 319.008 36.8346 319.945 36.5742C320.635 36.3919 321.677 36.2161 323.07 36.0469C325.909 35.7083 327.999 35.3047 329.34 34.8359C329.353 34.3542 329.359 34.0482 329.359 33.918C329.359 32.4857 329.027 31.4766 328.363 30.8906C327.465 30.0964 326.13 29.6992 324.359 29.6992C322.706 29.6992 321.482 29.9922 320.688 30.5781C319.906 31.151 319.327 32.1732 318.949 33.6445L315.512 33.1758C315.824 31.7044 316.339 30.5195 317.055 29.6211C317.771 28.7096 318.806 28.013 320.16 27.5312C321.514 27.0365 323.083 26.7891 324.867 26.7891C326.638 26.7891 328.077 26.9974 329.184 27.4141C330.29 27.8307 331.104 28.3581 331.625 28.9961C332.146 29.6211 332.51 30.4154 332.719 31.3789C332.836 31.9779 332.895 33.0586 332.895 34.6211V39.3086C332.895 42.5768 332.966 44.6471 333.109 45.5195C333.266 46.3789 333.565 47.2057 334.008 48H330.336C329.971 47.2708 329.737 46.418 329.633 45.4414ZM329.34 37.5898C328.064 38.1107 326.15 38.5534 323.598 38.918C322.152 39.1263 321.13 39.3607 320.531 39.6211C319.932 39.8815 319.47 40.2656 319.145 40.7734C318.819 41.2682 318.656 41.8216 318.656 42.4336C318.656 43.3711 319.008 44.1523 319.711 44.7773C320.427 45.4023 321.469 45.7148 322.836 45.7148C324.19 45.7148 325.395 45.4219 326.449 44.8359C327.504 44.237 328.279 43.4232 328.773 42.3945C329.151 41.6003 329.34 40.4284 329.34 38.8789V37.5898ZM338.383 48V19.3672H341.898V35.6953L350.219 27.2578H354.77L346.84 34.9531L355.57 48H351.234L344.379 37.3945L341.898 39.7773V48H338.383ZM372.562 41.3203L376.195 41.7695C375.622 43.8919 374.561 45.5391 373.012 46.7109C371.462 47.8828 369.483 48.4688 367.074 48.4688C364.04 48.4688 361.632 47.5378 359.848 45.6758C358.077 43.8008 357.191 41.1771 357.191 37.8047C357.191 34.3151 358.09 31.6068 359.887 29.6797C361.684 27.7526 364.014 26.7891 366.879 26.7891C369.652 26.7891 371.918 27.7331 373.676 29.6211C375.434 31.5091 376.312 34.1654 376.312 37.5898C376.312 37.7982 376.306 38.1107 376.293 38.5273H360.824C360.954 40.806 361.599 42.5508 362.758 43.7617C363.917 44.9727 365.362 45.5781 367.094 45.5781C368.383 45.5781 369.483 45.2396 370.395 44.5625C371.306 43.8854 372.029 42.8047 372.562 41.3203ZM361.02 35.6367H372.602C372.445 33.8919 372.003 32.5833 371.273 31.7109C370.154 30.3568 368.702 29.6797 366.918 29.6797C365.303 29.6797 363.943 30.2201 362.836 31.3008C361.742 32.3815 361.137 33.8268 361.02 35.6367ZM380.59 48V27.2578H383.754V30.4023C384.561 28.931 385.303 27.9609 385.98 27.4922C386.671 27.0234 387.426 26.7891 388.246 26.7891C389.431 26.7891 390.635 27.1667 391.859 27.9219L390.648 31.1836C389.789 30.6758 388.93 30.4219 388.07 30.4219C387.302 30.4219 386.612 30.6562 386 31.125C385.388 31.5807 384.952 32.2188 384.691 33.0391C384.301 34.2891 384.105 35.6562 384.105 37.1406V48H380.59ZM422.582 44.6211V48H403.656C403.63 47.1536 403.767 46.3398 404.066 45.5586C404.548 44.2695 405.316 43 406.371 41.75C407.439 40.5 408.975 39.0547 410.98 37.4141C414.092 34.862 416.195 32.8438 417.289 31.3594C418.383 29.862 418.93 28.4492 418.93 27.1211C418.93 25.7279 418.428 24.556 417.426 23.6055C416.436 22.6419 415.141 22.1602 413.539 22.1602C411.846 22.1602 410.492 22.668 409.477 23.6836C408.461 24.6992 407.947 26.1055 407.934 27.9023L404.32 27.5312C404.568 24.8359 405.499 22.7852 407.113 21.3789C408.728 19.9596 410.896 19.25 413.617 19.25C416.365 19.25 418.539 20.0117 420.141 21.5352C421.742 23.0586 422.543 24.9466 422.543 27.1992C422.543 28.3451 422.309 29.4714 421.84 30.5781C421.371 31.6849 420.59 32.8503 419.496 34.0742C418.415 35.2982 416.612 36.9779 414.086 39.1133C411.977 40.8841 410.622 42.0885 410.023 42.7266C409.424 43.3516 408.93 43.9831 408.539 44.6211H422.582ZM428.344 48V43.9961H432.348V48H428.344ZM437.504 33.8789C437.504 30.4935 437.849 27.7721 438.539 25.7148C439.242 23.6445 440.277 22.0495 441.645 20.9297C443.025 19.8099 444.757 19.25 446.84 19.25C448.376 19.25 449.724 19.5625 450.883 20.1875C452.042 20.7995 452.999 21.6914 453.754 22.8633C454.509 24.0221 455.102 25.4414 455.531 27.1211C455.961 28.7878 456.176 31.0404 456.176 33.8789C456.176 37.2383 455.831 39.9531 455.141 42.0234C454.451 44.0807 453.415 45.6758 452.035 46.8086C450.668 47.9284 448.936 48.4883 446.84 48.4883C444.079 48.4883 441.911 47.4987 440.336 45.5195C438.448 43.1367 437.504 39.2565 437.504 33.8789ZM441.117 33.8789C441.117 38.5794 441.664 41.7109 442.758 43.2734C443.865 44.8229 445.225 45.5977 446.84 45.5977C448.454 45.5977 449.809 44.8164 450.902 43.2539C452.009 41.6914 452.562 38.5664 452.562 33.8789C452.562 29.1654 452.009 26.0339 450.902 24.4844C449.809 22.9349 448.441 22.1602 446.801 22.1602C445.186 22.1602 443.897 22.8438 442.934 24.2109C441.723 25.9557 441.117 29.1784 441.117 33.8789Z" fill="#0F0FA3"/>
<defs>
<linearGradient id="paint0_linear_2452_274" x1="105.884" y1="41.2768" x2="-47.1093" y2="-23.1808" gradientUnits="userSpaceOnUse">
<stop stop-color="#0F0FA3"/>
<stop offset="0.73487" stop-color="#0B94E1" stop-opacity="0.13"/>
</linearGradient>
</defs>
</svg>
