<svg width="579" height="116" viewBox="0 0 579 116" fill="none" xmlns="http://www.w3.org/2000/svg">
<path d="M135.371 0.116211C120.647 0.116211 107.22 5.63042 97.0063 14.6898C86.8029 5.62416 73.3625 0.116211 58.6365 0.116211C26.7065 0.116211 0.815186 25.9624 0.815186 57.8629C0.815186 89.7579 26.7065 115.61 58.6365 115.61C73.3625 115.61 86.8029 110.099 97.0063 101.04C107.22 110.093 120.647 115.61 135.371 115.61C167.298 115.61 193.185 89.7579 193.185 57.8629C193.185 25.9624 167.298 0.116211 135.371 0.116211ZM58.6365 108.766C30.4825 108.766 7.66779 85.9798 7.66779 57.8629C7.66779 29.7433 30.4825 6.95686 58.6365 6.95686C86.786 6.95686 109.594 29.7433 109.594 57.8629C109.594 85.9798 86.786 108.766 58.6365 108.766ZM152.788 95.6355C152.788 95.6355 149.177 84.7329 138.688 84.7266C128.199 84.7329 124.57 95.6355 124.57 95.6355H111.681C111.681 95.6355 122.183 83.0884 128.186 68.2156C135.298 50.6251 135.53 34.655 135.53 25.8309C135.53 24.6722 135.506 23.8043 135.053 23.2572C134.361 22.4287 134.392 20.8701 134.392 20.8701V17.2817L136.436 15.2278C137.177 14.4576 137.642 13.4122 137.642 12.2692V8.94964C137.642 8.94964 137.794 8.53994 138.376 8.53712H138.976C139.563 8.53994 139.716 8.94964 139.716 8.94964V12.2692C139.716 13.4122 140.175 14.4576 140.916 15.2278L142.966 17.2817V20.8701C142.966 20.8701 142.99 22.4287 142.299 23.2572C141.846 23.8043 141.821 24.6722 141.821 25.8309C141.821 34.655 142.06 50.6251 149.165 68.2156C155.169 83.0884 165.664 95.6355 165.664 95.6355H152.788ZM81.3381 39.7075C78.1158 42.0821 73.041 45.8906 67.8331 49.8733L33.0772 45.0073C32.4255 44.9156 31.4404 45.1572 30.9215 45.5729L27.0462 48.4674L51.6999 62.3346C46.9676 66.0178 42.5631 69.481 39.1528 72.1949C38.5133 72.7176 37.4332 73.0325 36.6771 72.9652L22.6768 71.168C21.65 71.0275 20.7736 71.4247 20.1707 71.8863L17.6308 73.7752L30.6386 82.8562C33.1462 84.5923 51.406 74.9764 58.6199 70.1533C64.764 66.0391 85.3954 50.5121 89.8307 46.6915C94.2828 42.8953 97.8232 38.1945 96.4721 36.4033C95.4027 34.9942 86.2721 36.0853 81.3381 39.7075ZM140.31 64.7005H137.085C136.485 64.7005 136.087 64.9449 135.91 65.7643C135.891 65.8435 134.245 73.4513 132.936 77.9871H144.465C143.156 73.4513 141.509 65.8435 141.491 65.7643C141.314 64.9449 140.916 64.7005 140.31 64.7005Z" fill="#FF170F"/>
<path d="M284.844 58.1571C284.844 65.1429 283.805 71.0254 281.739 75.8227C279.672 80.6292 277.033 84.5355 273.815 87.5381C270.603 90.5537 267.014 92.7109 263.046 94.0355C259.09 95.3514 255.179 96.0204 251.311 96.0204C246.848 96.0204 242.595 95.3694 238.562 94.099C234.542 92.8012 230.998 90.6672 227.949 87.6919C224.899 84.7212 222.484 80.8102 220.691 75.9718C218.894 71.1384 218 65.2017 218 58.1571C218 51.2073 219.03 45.3202 221.096 40.5137C223.167 35.7072 225.804 31.8008 229.015 28.7987C232.234 25.7827 235.828 23.6167 239.789 22.2967C243.754 20.9854 247.662 20.3252 251.524 20.3252C255.996 20.3252 260.233 20.9581 264.273 22.2601C268.292 23.5311 271.836 25.6604 274.883 28.6491C277.925 31.6198 280.355 35.5174 282.148 40.3646C283.941 45.198 284.844 51.1305 284.844 58.1571ZM268.584 58.1571C268.584 54.8517 268.292 51.6731 267.718 48.6256C267.136 45.5869 266.185 42.9375 264.859 40.6633C263.53 38.4024 261.776 36.5893 259.588 35.2327C257.41 33.8853 254.69 33.207 251.419 33.207C248.149 33.207 245.404 33.8853 243.199 35.2327C240.977 36.5893 239.207 38.4024 237.883 40.6633C236.552 42.9375 235.613 45.5869 235.067 48.6256C234.522 51.6731 234.25 54.8517 234.25 58.1571C234.25 61.5528 234.542 64.7494 235.121 67.7515C235.692 70.7722 236.659 73.4127 237.98 75.6782C239.311 77.9344 241.067 79.743 243.242 81.0996C245.429 82.4511 248.149 83.1294 251.419 83.1294C254.69 83.1294 257.433 82.4511 259.649 81.0996C261.855 79.743 263.625 77.9344 264.958 75.6782C266.285 73.4127 267.222 70.7722 267.765 67.7515C268.313 64.7494 268.584 61.5528 268.584 58.1571Z" fill="#FF170F"/>
<path d="M323.94 53.7984C323.396 53.5358 322.679 53.233 321.76 52.8941C320.846 52.5501 319.915 52.383 318.965 52.383C317.408 52.383 316.19 52.582 315.309 52.9932C314.425 53.396 313.644 53.9021 312.978 54.5216C312.024 55.4032 311.446 56.3889 311.242 57.5057C311.05 58.6183 310.944 59.9342 310.944 61.4125V94.099H296.721V53.6039C296.721 52.451 296.696 51.2074 296.667 49.8466C296.629 48.4988 296.586 47.1968 296.517 45.9398C296.45 44.6873 296.382 43.5252 296.314 42.4445C296.246 41.3638 296.212 40.5138 296.212 39.9035H308.902V48.0242C309.767 46.731 310.64 45.5147 311.53 44.3706C312.419 43.2177 313.395 42.2232 314.447 41.3773C315.493 40.523 316.683 39.8581 317.996 39.3474C319.323 38.8363 320.832 38.5876 322.518 38.5876C323.534 38.5876 324.519 38.7006 325.469 38.9451C326.418 39.1757 327.158 39.397 327.701 39.6049L323.94 53.7984Z" fill="#FF170F"/>
<path d="M350.759 19H336.541V94.0989H350.759V19Z" fill="#FF170F"/>
<path d="M390.475 97.1234C389.665 99.7639 388.624 102.165 387.382 104.335C386.123 106.497 384.552 108.405 382.653 110.064C380.759 111.723 378.466 113.057 375.796 114.075C373.123 115.088 369.961 115.73 366.301 116.001L364.982 105.05C366.122 105.05 367.361 104.923 368.687 104.692C370 104.453 371.238 104.032 372.392 103.422C373.553 102.816 374.585 102.02 375.49 101.03C376.407 100.058 377.066 98.7875 377.475 97.2318L358.987 39.8984H374.628L382.14 70.6496C382.758 73.0868 383.283 75.4607 383.72 77.753C384.161 80.0454 384.444 81.6052 384.584 82.4192H384.786C385.118 80.9996 385.501 79.2675 385.911 77.2377C386.318 75.2162 386.814 73.01 387.424 70.6496L395.256 39.8984H408.656L390.475 97.1234Z" fill="#FF170F"/>
<path d="M473.459 71.8661C473.459 76.4012 472.562 80.0956 470.77 82.9755C468.986 85.8466 466.669 88.1213 463.835 89.7715C460.992 91.4263 457.833 92.5611 454.347 93.1672C450.871 93.7821 447.44 94.0988 444.054 94.0988H418.008V22.4502H445.222C448.137 22.4502 451.134 22.6669 454.212 23.1192C457.299 23.5577 460.087 24.417 462.595 25.6922C465.103 26.9854 467.158 28.8346 468.787 31.2265C470.417 33.6272 471.223 36.7516 471.223 40.6084C471.223 42.4442 470.878 44.1578 470.209 45.7904C469.539 47.4137 468.652 48.8333 467.574 50.0496C466.488 51.2659 465.266 52.2605 463.917 53.0383C462.559 53.8116 461.174 54.3496 459.752 54.6162V54.8154C461.635 55.0867 463.401 55.6562 465.039 56.4928C466.696 57.3429 468.127 58.4777 469.376 59.8885C470.625 61.3081 471.612 63.031 472.345 65.07C473.088 67.105 473.459 69.3658 473.459 71.8661ZM455.687 42.7429C455.687 40.6492 455.198 39.0259 454.212 37.8683C453.225 36.7289 452.03 35.9061 450.609 35.3815C449.178 34.8796 447.657 34.5995 446.037 34.5227C444.417 34.4592 442.949 34.4231 441.664 34.4231H433.842V50.859H441.872C443.23 50.859 444.706 50.8228 446.29 50.764C447.874 50.6918 449.378 50.4024 450.753 49.8959C452.148 49.394 453.316 48.58 454.275 47.4632C455.208 46.3511 455.687 44.7727 455.687 42.7429ZM457.208 71.4591C457.208 69.2209 456.683 67.4939 455.633 66.2368C454.583 64.9797 453.298 64.0709 451.776 63.5014C450.247 62.9268 448.626 62.5698 446.897 62.4295C445.168 62.2985 443.665 62.2262 442.379 62.2262H433.842V82.2161H443.194C445.023 82.2161 446.788 82.0985 448.472 81.8633C450.174 81.6281 451.659 81.1174 452.944 80.3349C454.23 79.5617 455.271 78.4811 456.041 77.093C456.819 75.7049 457.208 73.8195 457.208 71.4591Z" fill="#FF170F"/>
<path d="M516.126 94.0986V87.384C514.297 89.9565 512.197 92.0048 509.825 93.5332C507.462 95.0616 504.547 95.8075 501.098 95.8075C498.183 95.8075 495.666 95.3371 493.584 94.3879C491.475 93.4383 489.764 92.1225 488.451 90.4315C487.12 88.7402 486.142 86.7692 485.499 84.4944C484.857 82.234 484.54 79.7787 484.54 77.1469V39.8984H498.762V74.199C498.762 76.9705 499.324 79.2272 500.483 80.945C501.641 82.6678 503.57 83.536 506.267 83.536C507.625 83.536 508.82 83.3008 509.87 82.8169C510.921 82.3558 511.781 81.7409 512.469 80.9996C513.691 79.7199 514.433 78.5531 514.705 77.5451C514.976 76.5321 515.103 75.1125 515.103 73.2859V39.8984H529.335V94.0986H516.126Z" fill="#FF170F"/>
<path d="M579 77.853C579 80.4935 578.475 82.9127 577.425 85.1056C576.375 87.3118 574.881 89.1976 572.962 90.789C571.034 92.3808 568.643 93.6198 565.792 94.4833C562.949 95.3695 559.762 95.8034 556.241 95.8034C552.791 95.8034 549.659 95.3514 546.853 94.4472C544.046 93.5337 541.855 92.6021 540.298 91.6525L544.671 81.208C546.427 82.4196 548.437 83.4054 550.7 84.1513C552.981 84.893 555.19 85.2593 557.363 85.2593C558.314 85.2593 559.273 85.1778 560.269 85.006C561.238 84.825 562.134 84.5356 562.949 84.0925C563.773 83.6587 564.425 83.0753 564.932 82.3701C565.448 81.6557 565.692 80.7649 565.692 79.6796C565.692 78.667 565.412 77.8076 564.832 77.0932C564.253 76.3788 563.556 75.7685 562.75 75.2666C561.926 74.7555 561.066 74.3304 560.161 74.0003C559.237 73.666 558.423 73.354 557.671 73.0873L553.199 71.3644C549.677 70.0036 546.853 68.1905 544.725 65.925C542.579 63.6595 541.529 60.5351 541.529 56.5384C541.529 53.9748 542.018 51.5783 543.05 49.3447C544.064 47.1153 545.513 45.1665 547.405 43.5117C549.306 41.8523 551.551 40.5499 554.167 39.6049C556.775 38.6511 559.662 38.1807 562.849 38.1807C566.299 38.1807 569.241 38.5876 571.685 39.397C574.129 40.2063 576.058 40.9888 577.479 41.7301L573.098 52.1797C571.549 51.1666 569.775 50.3754 567.774 49.7966C565.764 49.2225 563.9 48.9377 562.134 48.9377C559.219 48.9377 557.245 49.5253 556.195 50.7101C555.145 51.8945 554.62 53.0881 554.62 54.3091C554.62 55.1277 554.828 55.8375 555.227 56.4435C555.634 57.0584 556.159 57.5964 556.802 58.0664C557.454 58.5414 558.142 58.9484 558.884 59.2873C559.626 59.6174 560.342 59.8888 561.021 60.0879L565.792 61.8241C567.693 62.57 569.449 63.3794 571.078 64.2568C572.699 65.143 574.111 66.2098 575.297 67.5076C576.474 68.7873 577.389 70.275 578.041 71.9705C578.683 73.666 579 75.6148 579 77.853Z" fill="#FF170F"/>
</svg>
