<svg width="834" height="140" viewBox="0 0 834 140" fill="none" xmlns="http://www.w3.org/2000/svg">
<path d="M754.963 87.0187C754.963 89.2897 754.784 91.013 754.45 92.2997C754.111 93.5641 753.191 94.9963 751.676 96.5689C750.841 97.5142 749.749 98.2469 748.479 98.8679C747.164 99.4499 745.688 99.7186 744.006 99.7186C740.63 99.7186 738.24 98.6668 736.826 96.5185C735.383 94.381 734.687 91.595 734.687 88.1204V45.6237H717.068V91.7738C717.068 95.0524 717.474 98.1014 718.265 100.905C719.057 103.713 720.271 106.164 721.92 108.267C723.546 110.354 725.668 111.982 728.248 113.162C730.871 114.326 733.968 114.913 737.572 114.913C741.861 114.913 745.46 113.996 748.39 112.083C751.348 110.203 753.949 107.674 756.21 104.485L756.233 112.793H772.565V45.6237H754.963V87.0187ZM698.09 70.3579C696.541 68.5784 694.747 67.1909 692.664 66.1339C690.614 65.0649 688.398 64.3711 686.063 64.0469V63.8005C687.801 63.4482 689.522 62.8105 691.205 61.8315C692.876 60.8914 694.38 59.6384 695.711 58.1334C697.043 56.617 698.157 54.8662 698.97 52.8519C699.816 50.8657 700.24 48.7065 700.24 46.435C700.24 41.657 699.226 37.7911 697.238 34.7978C695.216 31.8439 692.664 29.5558 689.556 27.9614C686.475 26.3837 683.016 25.3095 679.201 24.7441C675.402 24.2015 671.692 23.9443 668.088 23.9443H635.401V112.793H666.751C670.929 112.793 675.185 112.413 679.507 111.652C683.818 110.902 687.751 109.492 691.26 107.45C694.787 105.38 697.655 102.572 699.883 98.9968C702.089 95.4219 703.204 90.8451 703.204 85.2113C703.204 82.0896 702.741 79.2812 701.833 76.7805C700.914 74.2404 699.633 72.1143 698.09 70.3579ZM653.989 38.58H664.69C666.272 38.58 668.801 38.6304 670.801 38.7032C672.811 38.7926 674.694 39.1392 676.432 39.7659C678.198 40.4373 679.685 41.4502 680.894 42.8767C682.114 44.337 682.716 46.3456 682.716 48.9637C682.716 51.5148 682.125 53.473 680.961 54.8662C679.774 56.2704 678.348 57.2718 676.627 57.9261C674.917 58.5585 673.073 58.9051 671.135 59.0002C669.169 59.0902 667.336 59.1234 665.681 59.1234H653.989V38.58ZM683.178 91.6787C682.214 93.3962 680.961 94.711 679.329 95.69C677.764 96.6525 675.931 97.2901 673.836 97.5812C671.742 97.8722 669.57 98.0286 667.297 98.0286H653.989V73.2555H666.305C667.904 73.2555 669.748 73.3283 671.909 73.5019C674.026 73.6806 676.02 74.1172 677.914 74.839C679.786 75.5385 681.39 76.6574 682.682 78.2128C683.975 79.7733 684.637 81.9612 684.637 84.6968C684.637 87.6564 684.125 89.9611 683.178 91.6787ZM832.814 85.3682C832.023 83.2926 830.886 81.4405 829.405 79.818C827.957 78.2517 826.219 76.8865 824.18 75.8181C822.185 74.7216 820.007 73.7259 817.651 72.8024L811.769 70.6483C810.934 70.4025 810.037 70.0502 809.14 69.6417C808.221 69.2384 807.352 68.7354 806.555 68.1591C805.759 67.5604 805.123 66.9056 804.611 66.1505C804.11 65.4121 803.859 64.5115 803.859 63.5209C803.859 62.0217 804.505 60.5276 805.798 59.0902C807.112 57.6184 809.552 56.8971 813.151 56.8971C815.323 56.8971 817.635 57.2604 820.119 57.9599C822.587 58.6594 824.781 59.6493 826.72 60.9194L832.112 47.9342C830.363 46.9718 827.967 46.0208 824.948 45.0136C821.951 44.007 818.286 43.5144 814.019 43.5144C810.087 43.5144 806.499 44.0741 803.291 45.2485C800.049 46.435 797.242 48.0459 794.93 50.1049C792.585 52.1639 790.758 54.558 789.51 57.3331C788.245 60.1082 787.627 63.1016 787.627 66.2565C787.627 71.2195 788.942 75.1243 791.593 77.9218C794.222 80.7301 797.721 82.9455 802.082 84.6578L807.625 86.7724C808.527 87.1305 809.552 87.5108 810.694 87.9251C811.824 88.3164 812.894 88.8537 813.908 89.469C814.9 90.1066 815.768 90.8674 816.493 91.7405C817.2 92.6245 817.556 93.6987 817.556 94.9292C817.556 96.2836 817.222 97.4024 816.615 98.2583C815.986 99.1423 815.161 99.8412 814.159 100.384C813.151 100.938 812.042 101.324 810.822 101.52C809.602 101.744 808.416 101.856 807.235 101.856C804.578 101.856 801.82 101.374 798.996 100.446C796.2 99.5451 793.71 98.342 791.515 96.8204L786.112 109.777C788.039 110.941 790.758 112.083 794.222 113.235C797.698 114.354 801.576 114.913 805.842 114.913C810.209 114.913 814.153 114.377 817.685 113.291C821.194 112.195 824.135 110.656 826.531 108.703C828.903 106.729 830.758 104.384 832.056 101.66C833.337 98.9349 834 95.9421 834 92.6692C834 89.9055 833.605 87.4771 832.814 85.3682ZM325.863 98.5041C324.104 95.8802 322.338 93.2398 320.53 90.5993C318.728 87.9474 317.091 85.441 315.57 83.0744C314.054 80.7415 312.69 78.6264 311.503 76.7576C310.267 74.8614 309.375 73.3621 308.799 72.2707C310.726 71.9407 311.013 71.2751 313.266 70.2794C315.542 69.2613 317.614 67.84 319.55 65.9712C321.488 64.1253 323.101 61.8315 324.399 59.1234C325.696 56.3821 326.351 53.171 326.351 49.5005C326.351 45.3717 325.696 41.9034 324.399 39.0275C323.112 36.1968 321.399 33.8021 319.307 31.9333C317.215 30.0594 314.82 28.532 312.08 27.4688C309.375 26.3837 306.624 25.5667 303.785 25.0746C301.006 24.582 298.223 24.252 295.516 24.1122C292.787 24.0228 290.353 23.9443 288.167 23.9443H260V112.793H278.571V77.3065H286.596C287.584 77.3065 288.763 77.586 290.102 78.112C291.43 78.6602 292.803 80.148 294.249 82.5989L311.915 112.793H335.667C334.333 110.869 332.793 108.687 331.089 106.197C329.359 103.713 327.613 101.167 325.863 98.5041ZM306.284 56.6731C305.281 58.279 303.992 59.5038 302.44 60.3992C300.911 61.2717 299.146 61.8762 297.19 62.2176C295.229 62.5642 293.319 62.7378 291.475 62.7378H278.571V39.1283H290.353C292.269 39.1283 294.252 39.2515 296.302 39.5087C298.349 39.755 300.24 40.2809 301.961 41.1197C303.652 41.9034 305.072 43.0446 306.136 44.5553C307.239 46.0769 307.782 48.0906 307.782 50.6085C307.782 53.0759 307.273 55.0616 306.284 56.6731ZM595.791 83.7235C595.055 86.7724 594.393 89.7039 593.83 92.5626C593.312 95.4219 592.944 97.3348 592.777 98.3534H592.543C592.365 97.3348 592.008 95.4219 591.468 92.5626C590.916 89.7039 590.282 86.7724 589.507 83.7235L580.211 45.6237H560.87L583.742 116.71C583.23 118.65 582.394 120.234 581.297 121.415C580.16 122.651 578.874 123.636 577.458 124.396C576.032 125.146 574.489 125.672 572.852 125.98C571.231 126.254 569.705 126.383 568.279 126.383L569.911 140C574.428 139.664 580.489 138.87 583.798 137.633C587.101 136.341 589.947 134.707 592.287 132.637C594.616 130.59 596.565 128.218 598.108 125.532C599.662 122.847 600.932 119.87 601.957 116.614L624.45 45.6237H605.11L595.791 83.7235ZM395.337 54.0825C392.727 50.7426 389.429 48.0906 385.455 46.1382C381.455 44.1634 376.693 43.1901 371.156 43.1901C365.705 43.1901 360.948 44.1634 356.899 46.1382C352.818 48.0906 349.44 50.7317 346.761 54.0098C344.056 57.2942 342.048 61.0816 340.717 65.4121C339.372 69.7311 338.717 74.2965 338.717 79.063C338.717 83.8856 339.338 88.451 340.592 92.7981C341.851 97.167 343.775 101.039 346.373 104.362C348.978 107.669 352.275 110.326 356.25 112.29C360.241 114.254 365.023 115.261 370.551 115.261C375.983 115.261 380.754 114.254 384.823 112.29C388.897 110.326 392.265 107.674 394.947 104.407C397.648 101.117 399.635 97.3348 401.002 92.9934C402.344 88.6693 403.01 84.1205 403.01 79.3425C403.01 74.5423 402.372 69.9774 401.116 65.6131C399.863 61.2385 397.924 57.395 395.337 54.0825ZM384.023 86.9122C383.609 89.5251 382.862 91.9027 381.823 94.0344C380.754 96.1936 379.303 97.9284 377.47 99.3268C375.626 100.714 373.306 101.414 370.551 101.414C367.78 101.414 365.497 100.686 363.736 99.2151C361.967 97.7382 360.597 95.9026 359.572 93.7319C358.556 91.5337 357.899 89.1276 357.57 86.4705C357.222 83.8352 357.052 81.3173 357.052 78.9621C357.052 76.607 357.261 74.1172 357.676 71.4876C358.105 68.9084 358.851 66.5309 359.904 64.3711C360.926 62.2176 362.402 60.4777 364.243 59.0902C366.078 57.6803 368.39 56.9865 371.156 56.9865C373.941 56.9865 376.202 57.725 377.968 59.2019C379.737 60.6903 381.124 62.5029 382.132 64.7068C383.132 66.8666 383.806 69.278 384.14 71.9407C384.483 74.5927 384.647 77.1048 384.647 79.4657C384.647 81.7934 384.444 84.2883 384.023 86.9122ZM550.265 79.818C548.816 78.2517 547.078 76.8865 545.062 75.8181C543.051 74.7216 540.851 73.7259 538.505 72.8024L532.629 70.6483C531.799 70.4025 530.913 70.0502 529.988 69.6417C529.086 69.2384 528.212 68.7354 527.426 68.1591C526.624 67.5604 525.978 66.9056 525.477 66.1505C524.964 65.4121 524.73 64.5115 524.73 63.5209C524.73 62.0217 525.365 60.5276 526.657 59.0902C527.972 57.6184 530.4 56.8971 534.01 56.8971C536.182 56.8971 538.505 57.2604 540.995 57.9599C543.457 58.6594 545.641 59.6493 547.58 60.9194L552.977 47.9342C551.234 46.9718 548.816 46.0208 545.814 45.0136C542.789 44.007 539.157 43.5144 534.885 43.5144C530.935 43.5144 527.37 44.0741 524.14 45.2485C520.903 46.435 518.124 48.0459 515.784 50.1049C513.444 52.1639 511.618 54.558 510.369 57.3331C509.122 60.1082 508.504 63.1016 508.504 66.2565C508.504 71.2195 509.807 75.1243 512.447 77.9218C515.094 80.7301 518.58 82.9455 522.937 84.6578L528.473 86.7724C529.398 87.1305 530.445 87.5108 531.548 87.9251C532.69 88.3164 533.759 88.8537 534.762 89.469C535.781 90.1066 536.65 90.8674 537.341 91.7405C538.054 92.6245 538.41 93.6987 538.41 94.9292C538.41 96.2836 538.116 97.4024 537.475 98.2583C536.851 99.1423 536.027 99.8412 535.024 100.384C534.01 100.938 532.896 101.324 531.693 101.52C530.49 101.744 529.275 101.856 528.111 101.856C525.432 101.856 522.669 101.374 519.867 100.446C517.065 99.5451 514.57 98.342 512.381 96.8204L506.972 109.777C508.899 110.941 511.606 112.083 515.082 113.235C518.558 114.354 522.435 114.913 526.707 114.913C531.064 114.913 535.013 114.377 538.522 113.291C542.043 112.195 545.017 110.656 547.379 108.703C549.769 106.729 551.612 104.384 552.916 101.66C554.213 98.9349 554.86 95.9421 554.86 92.6692C554.86 89.9055 554.47 87.4771 553.679 85.3682C552.883 83.2926 551.746 81.4405 550.265 79.818ZM493.107 79.818C491.642 78.2517 489.904 76.8865 487.899 75.8181C485.866 74.7216 483.699 73.7259 481.359 72.8024L475.444 70.6483C474.614 70.4025 473.767 70.0502 472.809 69.6417C471.901 69.2384 471.043 68.7354 470.252 68.1591C469.45 67.5604 468.793 66.9056 468.325 66.1505C467.807 65.4121 467.556 64.5115 467.556 63.5209C467.556 62.0217 468.213 60.5276 469.506 59.0902C470.798 57.6184 473.249 56.8971 476.848 56.8971C479.031 56.8971 481.359 57.2604 483.816 57.9599C486.289 58.6594 488.489 59.6493 490.417 60.9194L495.809 47.9342C494.032 46.9718 491.676 46.0208 488.657 45.0136C485.626 44.007 481.989 43.5144 477.705 43.5144C473.767 43.5144 470.185 44.0741 466.954 45.2485C463.735 46.435 460.95 48.0459 458.616 50.1049C456.271 52.1639 454.466 54.558 453.196 57.3331C451.948 60.1082 451.319 63.1016 451.319 66.2565C451.319 71.2195 452.639 75.1243 455.279 77.9218C457.919 80.7301 461.423 82.9455 465.768 84.6578L471.311 86.7724C472.235 87.1305 473.255 87.5108 474.397 87.9251C475.522 88.3164 476.58 88.8537 477.605 89.469C478.608 90.1066 479.466 90.8674 480.184 91.7405C480.903 92.6245 481.226 93.6987 481.226 94.9292C481.226 96.2836 480.941 97.4024 480.29 98.2583C479.677 99.1423 478.858 99.8412 477.85 100.384C476.848 100.938 475.744 101.324 474.53 101.52C473.305 101.744 472.113 101.856 470.926 101.856C468.258 101.856 465.506 101.374 462.699 100.446C459.891 99.5451 457.385 98.342 455.224 96.8204L449.814 109.777C451.742 110.941 454.432 112.083 457.919 113.235C461.395 114.354 465.272 114.913 469.55 114.913C473.884 114.913 477.85 114.377 481.359 113.291C484.88 112.195 487.827 110.656 490.216 108.703C492.6 106.729 494.461 104.384 495.753 101.66C497.029 98.9349 497.692 95.9421 497.692 92.6692C497.692 89.9055 497.279 87.4771 496.505 85.3682C495.686 83.2926 494.572 81.4405 493.107 79.818ZM426.146 16C420.175 16 415.329 20.582 415.329 26.2491C415.329 31.8886 420.175 36.4649 426.146 36.4649C432.112 36.4649 436.942 31.8886 436.942 26.2491C436.942 20.582 432.112 16 426.146 16ZM417.173 45.6237V112.793H434.78V45.6237H417.173Z" fill="#FF0000"/>
<path d="M156.89 0C139.727 0 124.079 6.42764 112.173 16.9815C100.28 6.41709 84.6114 0 67.4485 0C30.2282 0 0.0474854 30.1138 0.0474854 67.2869C0.0474854 104.449 30.2282 134.574 67.4485 134.574C84.6114 134.574 100.28 128.153 112.173 117.599C124.079 128.146 139.727 134.574 156.89 134.574C194.107 134.574 224.282 104.449 224.282 67.2869C224.282 30.1138 194.107 0 156.89 0ZM67.4485 126.601C34.6309 126.601 8.03694 100.05 8.03694 67.2869C8.03694 34.524 34.6309 7.96873 67.4485 7.96873C100.259 7.96873 126.846 34.524 126.846 67.2869C126.846 100.05 100.259 126.601 67.4485 126.601ZM177.196 111.3C177.196 111.3 172.986 98.5975 160.759 98.5938C148.532 98.5975 144.3 111.3 144.3 111.3H129.279C129.279 111.3 141.52 96.6833 148.518 79.3538C156.804 58.8531 157.082 40.2451 157.082 29.9611C157.082 28.6149 157.05 27.5993 156.52 26.9636C155.716 25.9978 155.748 24.1833 155.748 24.1833V20L158.135 17.6065C158.995 16.7116 159.536 15.4935 159.536 14.1618H159.543V10.2913C159.543 10.2913 159.713 9.81527 160.396 9.80837H161.094C161.78 9.81527 161.958 10.2913 161.958 10.2913V14.1618C161.958 15.4935 162.495 16.7116 163.355 17.6065L165.745 20V24.1833C165.745 24.1833 165.774 25.9978 164.966 26.9636C164.44 27.5993 164.408 28.6149 164.408 29.9611C164.408 40.2451 164.689 58.8531 172.968 79.3538C179.97 96.6833 192.204 111.3 192.204 111.3H177.196ZM93.9074 46.1327C90.1522 48.8993 84.2381 53.3382 78.1674 57.9793L37.6539 52.3084C36.8928 52.2018 35.7475 52.4785 35.143 52.9651L30.6266 56.3389L59.3615 72.4964C53.8458 76.7898 48.7103 80.824 44.738 83.9916C43.9911 84.5989 42.7322 84.9644 41.8502 84.8866L25.5304 82.7913C24.3352 82.628 23.313 83.0931 22.6087 83.6291L19.6498 85.8273L34.8123 96.4098C37.7355 98.4375 59.0203 87.2302 67.4271 81.6124C74.5895 76.8145 98.6376 58.7215 103.808 54.272C109.001 49.8509 113.126 44.368 111.551 42.28C110.302 40.6429 99.6616 41.9105 93.9074 46.1327ZM162.651 75.252H158.889C158.192 75.252 157.729 75.5396 157.519 76.4985C157.502 76.5873 155.581 85.4509 154.055 90.7386H167.495C165.965 85.4509 164.049 76.5873 164.027 76.4985C163.818 75.5396 163.355 75.252 162.651 75.252Z" fill="#FF0000"/>
</svg>
