<svg viewBox="0 0 232 235" xmlns="http://www.w3.org/2000/svg">
<rect width="232" height="235" rx="30" fill="#006DBD"/>
<path d="M74.1764 79V91.3856H52.5945V156.192H37.3946V91.3856H15V79H74.1764Z" fill="white"/>
<path d="M84.4233 103.296L95.8719 142.038L107.322 103.296H122.32L103.271 156.192H88.3769L69.4275 103.298L84.4233 103.296Z" fill="white"/>
<path d="M135.589 156.192V103.296H149.774V111.2H149.974C154.432 104.955 158.488 101.344 166.795 102.418C173.786 103.296 175.712 105.639 179.763 110.128C183.209 105.443 187.465 101.15 199.015 102.418C209.959 103.981 213 111.006 213 119.497V156.192H198.815V119.789C198.613 115.886 195.065 114.421 191.72 114.225C184.121 113.737 181.387 120.179 181.387 123.79V156.19H167.2V119.789C166.389 116.08 163.857 114.325 159.397 114.225C154.432 114.127 149.772 117.25 149.772 123.79V156.19L135.589 156.192Z" fill="white"/>
</svg>
